<?xml version="1.0" encoding="UTF-8" standalone="no"?>
<!-- Created with Inkscape (http://www.inkscape.org/) -->

<svg
   width="300mm"
   height="80mm"
   viewBox="0 0 300 80"
   version="1.1"
   id="svg1"
   inkscape:export-filename="bitmap1.png"
   inkscape:export-xdpi="96"
   inkscape:export-ydpi="96"
   inkscape:version="1.4.2 (ebf0e940d0, 2025-05-08)"
   sodipodi:docname="drawing222.svg"
   xmlns:inkscape="http://www.inkscape.org/namespaces/inkscape"
   xmlns:sodipodi="http://sodipodi.sourceforge.net/DTD/sodipodi-0.dtd"
   xmlns="http://www.w3.org/2000/svg"
   xmlns:svg="http://www.w3.org/2000/svg">
  <sodipodi:namedview
     id="namedview1"
     pagecolor="#143c6d"
     bordercolor="#000000"
     borderopacity="0.25"
     inkscape:showpageshadow="2"
     inkscape:pageopacity="0.0"
     inkscape:pagecheckerboard="true"
     inkscape:deskcolor="#d1d1d1"
     inkscape:document-units="mm"
     inkscape:export-bgcolor="#143c6dff"
     inkscape:zoom="0.88034232"
     inkscape:cx="502.07742"
     inkscape:cy="84.626171"
     inkscape:window-width="1920"
     inkscape:window-height="1080"
     inkscape:window-x="0"
     inkscape:window-y="0"
     inkscape:window-maximized="1"
     inkscape:current-layer="layer1"
     inkscape:clip-to-page="false"
     labelstyle="default" />
  <defs
     id="defs1">
    <inkscape:perspective
       sodipodi:type="inkscape:persp3d"
       inkscape:vp_x="0 : 40 : 1"
       inkscape:vp_y="0 : 1000 : 0"
       inkscape:vp_z="148.16326 : 93.570791 : 1"
       inkscape:persp3d-origin="150 : 26.666667 : 1"
       id="perspective2" />
  </defs>
  <g
     inkscape:label="main"
     inkscape:groupmode="layer"
     id="layer1"
     style="display:inline">
    <rect
       style="display:inline;fill:#143c6d;fill-opacity:1;stroke:none;stroke-width:10.1573;stroke-linecap:round;stroke-linejoin:miter;stroke-miterlimit:1;stroke-dasharray:none;stroke-opacity:1;paint-order:stroke markers fill"
       id="rect737"
       width="300"
       height="80"
       x="5.3290705e-15"
       y="0"
       inkscape:label="bg"
       sodipodi:insensitive="true" />
    <text
       xml:space="preserve"
       style="font-size:84.283px;text-align:start;writing-mode:lr-tb;direction:ltr;text-anchor:start;fill:#000000;stroke-width:0.439665;stroke-dasharray:none"
       x="-1.8063363"
       y="66.731773"
       id="text1"><tspan
         sodipodi:role="line"
         id="tspan1"
         style="font-style:normal;font-variant:normal;font-weight:500;font-stretch:normal;font-size:84.283px;font-family:'Geometric 231 Heavy';-inkscape-font-specification:'Geometric 231 Heavy,  Medium';fill:#ffffff;fill-opacity:1;stroke-width:0.439665;stroke-dasharray:none"
         x="-1.8063363"
         y="66.731773">BIPKN T</tspan></text>
  </g>
  <g
     inkscape:groupmode="layer"
     id="layer5"
     inkscape:label="corner"
     style="display:inline">
    <path
       id="rect7"
       style="display:inline;fill:#ff0000;fill-opacity:1;stroke-width:0.201991;stroke-dasharray:none"
       d="M 38.180481,0.12316359 V 0.00258249 H 0.00460769 V 38.178455 h 0.1210135 z"
       inkscape:label="halfrectangle" />
    <text
       xml:space="preserve"
       style="font-style:normal;font-variant:normal;font-weight:500;font-stretch:normal;font-size:11.2889px;line-height:0;font-family:'Geometric 231 Heavy';-inkscape-font-specification:'Geometric 231 Heavy,  Medium';text-align:start;writing-mode:lr-tb;direction:ltr;text-anchor:start;fill:#c80000;fill-opacity:1;stroke:#000000;stroke-width:0.264999;stroke-dasharray:none;stroke-opacity:1"
       x="-10.625312"
       y="25.762239"
       id="text735"
       transform="rotate(-45)"><tspan
         sodipodi:role="line"
         id="tspan735"
         style="font-style:normal;font-variant:normal;font-weight:bold;font-stretch:normal;font-size:11.2889px;line-height:0;font-family:'IBM Plex Mono';-inkscape-font-specification:'IBM Plex Mono Bold';fill:#ffffff;fill-opacity:1;stroke:none;stroke-width:0.265"
         x="-10.625312"
         y="25.762239">NEW</tspan></text>
  </g>
  <g
     inkscape:groupmode="layer"
     id="layer6"
     inkscape:label="iconletter"
     transform="translate(56.77532,-12.379581)">
    <path
       d="m 181.17552,17.851958 c 4.79099,-1.596825 10.78342,-0.599403 15.3839,1.247817 0.3046,0.120813 0.61088,0.229756 0.92052,0.336629 3.20753,1.114554 6.52255,3.076748 8.33079,6.028688 0.046,0.07175 0.092,0.143469 0.13936,0.217381 0.28208,0.48388 0.33648,0.798941 0.19568,1.342863 -0.1125,0.350293 -0.23108,0.693175 -0.37217,1.033107 -0.0297,0.07214 -0.0592,0.144241 -0.09,0.218522 -0.93795,2.231341 -2.40311,4.338822 -4.5339,5.57189 -0.10915,0.06312 -0.21821,0.126339 -0.33064,0.191384 -0.11277,0.06464 -0.22554,0.129307 -0.34171,0.195934 -0.16755,0.09743 -0.16755,0.09743 -0.3385,0.19678 -0.16421,0.09457 -0.16421,0.09457 -0.33175,0.191048 -0.0985,0.05678 -0.19706,0.113548 -0.29857,0.172045 -0.31982,0.169517 -0.31982,0.169517 -0.52241,0.231605 -0.33318,0.108822 -0.57147,0.197487 -0.75776,0.504816 -0.0944,0.262682 -0.16471,0.523515 -0.22988,0.79494 -0.0272,0.101211 -0.0544,0.202446 -0.0825,0.306738 -0.0889,0.333978 -0.17304,0.668983 -0.25698,1.004261 -0.0611,0.231995 -0.12227,0.464052 -0.1834,0.696069 -0.16039,0.610164 -0.31688,1.221251 -0.47272,1.832584 -0.15991,0.623845 -0.32311,1.246825 -0.48631,1.869821 -0.3192,1.222159 -0.6346,2.445248 -0.94692,3.66918 0.15281,0.116603 0.15281,0.116603 0.30875,0.235537 0.13462,0.103147 0.2693,0.206288 0.40394,0.309448 0.10059,0.07661 0.10059,0.07661 0.20315,0.154824 0.44437,0.340971 0.85424,0.689826 1.22549,1.110755 0.0472,0.05087 0.0939,0.101701 0.14241,0.154095 2.12192,2.326718 3.36057,5.439148 3.33894,8.583985 -0.0829,1.547258 -0.35681,3.123894 -1.52256,4.222396 -2.10036,1.806789 -5.16274,1.784962 -7.767,1.607215 -1.31982,-0.100275 -2.62736,-0.263632 -3.92483,-0.527159 -0.49724,-0.09994 -0.98765,-0.158881 -1.49324,-0.201275 -0.024,0.05481 -0.0479,0.109707 -0.0727,0.166229 -0.034,0.07781 -0.068,0.155579 -0.10312,0.235714 -0.0384,0.0875 -0.0765,0.174997 -0.11587,0.265153 -0.086,0.196587 -0.17192,0.393177 -0.25793,0.589748 -0.21761,0.497619 -0.4351,0.99529 -0.65199,1.493224 -0.42363,0.971897 -0.85202,1.941388 -1.28733,2.908107 -0.40107,0.89199 -0.79208,1.788298 -1.18265,2.684923 -0.23893,0.548198 -0.47875,1.096001 -0.71841,1.643884 -0.20019,0.457714 -0.40013,0.915525 -0.59965,1.373526 -0.42433,0.973534 -0.85293,1.944899 -1.28958,2.912983 -0.33553,0.745319 -0.66232,1.494358 -0.98565,2.245048 -0.55225,1.273785 -0.55225,1.273785 -1.18691,1.613893 -0.30982,0.115442 -0.53704,0.07329 -0.84833,-0.02032 -0.33721,-0.222648 -0.49895,-0.543292 -0.64452,-0.91385 -0.01,-0.244274 -0.01,-0.244274 0.0144,-0.505123 0.008,-0.09609 0.0168,-0.192197 0.0254,-0.291204 0.01,-0.09786 0.0202,-0.195688 0.0307,-0.29651 0.008,-0.09076 0.0184,-0.181497 0.0279,-0.274985 0.0299,-0.280507 0.0622,-0.560658 0.0951,-0.840853 0.0908,-0.791846 0.17752,-1.583864 0.25706,-2.37693 0.10734,-1.065502 0.22568,-2.129627 0.34621,-3.193712 0.0561,-0.495394 0.11131,-0.990884 0.16665,-1.48636 0.0666,-0.595309 0.13318,-1.190615 0.20058,-1.785829 0.11938,-1.056224 0.23357,-2.112725 0.34011,-3.170322 0.0991,-0.977862 0.20971,-1.954373 0.3201,-2.931015 0.0513,-0.456596 0.10136,-0.913346 0.1513,-1.370113 0.008,-0.08011 0.0175,-0.160269 0.0266,-0.242838 0.0198,-0.181596 0.0396,-0.363167 0.0594,-0.544768 -0.48914,-0.223318 -0.97644,-0.415666 -1.49142,-0.571017 -1.77046,-0.565331 -3.46027,-1.390147 -5.07655,-2.300595 -0.068,-0.03827 -0.13609,-0.07654 -0.20618,-0.115974 -1.7801,-1.016887 -3.51145,-2.423821 -4.20259,-4.419654 -0.18074,-0.701808 -0.22429,-1.293774 -0.0658,-1.999637 0.019,-0.09426 0.0372,-0.188748 0.0564,-0.28598 0.57316,-2.512277 2.47741,-4.802362 4.61917,-6.169366 1.87174,-1.142873 3.65545,-1.957361 5.85201,-2.184571 0.0887,-0.0093 0.17721,-0.01843 0.26851,-0.02792 0.0673,-0.0068 0.13438,-0.0138 0.20359,-0.02092 0.37708,-1.336937 0.75009,-2.674936 1.11791,-4.014447 0.17081,-0.622001 0.34352,-1.243405 0.51876,-1.86417 0.1698,-0.598933 0.33504,-1.199012 0.4981,-1.79981 0.0624,-0.229119 0.12678,-0.457691 0.19306,-0.685735 0.0919,-0.319838 0.17795,-0.640939 0.26408,-0.96238 0.0283,-0.09397 0.0566,-0.187969 0.0856,-0.284825 0.13004,-0.508477 0.13004,-0.508477 -0.0119,-0.99886 -0.14932,-0.208845 -0.30815,-0.39746 -0.47949,-0.588362 -0.87837,-1.358519 -1.68706,-2.730657 -2.0285,-4.323418 -0.0156,-0.07149 -0.0311,-0.142946 -0.0472,-0.216578 -0.62678,-2.993619 -0.70098,-6.367957 2.50714,-7.557255 z m 0.56717,2.285112 c 2.54093,2.693205 6.15382,4.387599 9.6685,5.407047 0.0753,0.02225 0.15073,0.04443 0.22838,0.0673 1.15635,0.337816 2.29546,0.572538 3.49219,0.707268 0.0717,0.0086 0.14364,0.01706 0.21763,0.02584 1.09573,0.128649 2.18382,0.183943 3.28689,0.172029 0.0915,-8.57e-4 0.18323,-0.0018 0.27765,-0.0026 2.27202,0.0323 2.27202,0.0323 4.40376,-0.595925 -1.32053,-1.752038 -3.3668,-2.954058 -5.35404,-3.806298 -0.0942,-0.04094 -0.0942,-0.04094 -0.19023,-0.08272 -0.75805,-0.328526 -1.52137,-0.623228 -2.31109,-0.868346 -0.26755,-0.08441 -0.53144,-0.174305 -0.79616,-0.266886 -0.60643,-0.207392 -1.22125,-0.377651 -1.84023,-0.543175 -0.1162,-0.03107 -0.2324,-0.06215 -0.35211,-0.09417 -0.80069,-0.210301 -1.58624,-0.37305 -2.4069,-0.482981 -0.2407,-0.04087 -0.4813,-0.08219 -0.72185,-0.123931 -0.64239,-0.104257 -1.27982,-0.176455 -1.92936,-0.215881 -0.17108,-0.01089 -0.17108,-0.01089 -0.3456,-0.02196 -1.6435,-0.0763 -3.85763,-0.123238 -5.32743,0.725342 z m -1.04488,2.239946 c -0.006,2.750504 0.79359,5.285415 2.76256,7.266139 1.80194,1.733244 3.94782,2.695808 6.31399,3.392716 0.099,0.03129 0.198,0.06258 0.3,0.09486 2.92963,0.873861 6.37368,0.785853 9.0978,-0.672254 1.65819,-0.936264 3.12637,-2.326447 3.93043,-4.078114 -0.3479,-0.02244 -0.65564,0.01222 -0.99934,0.06138 -1.76746,0.251262 -3.59668,0.381894 -5.37872,0.230735 -0.11581,-0.009 -0.11581,-0.009 -0.23396,-0.01825 -1.10432,-0.08671 -2.19524,-0.197971 -3.28413,-0.405606 -0.10059,-0.01877 -0.20128,-0.03751 -0.30497,-0.05682 -1.60751,-0.320232 -3.19444,-0.737182 -4.69762,-1.395407 -0.23106,-0.100941 -0.46334,-0.198753 -0.69569,-0.296685 -2.45735,-1.05187 -4.69362,-2.433112 -6.72267,-4.173307 -0.029,0.01672 -0.0579,0.03341 -0.0876,0.05064 z m 2.44039,10.496018 c -0.0236,0.08704 -0.0471,0.174038 -0.0713,0.263695 -0.0257,0.09646 -0.0514,0.192907 -0.0779,0.292286 -0.0272,0.100831 -0.0543,0.20163 -0.0822,0.305499 -0.0901,0.335296 -0.17984,0.670725 -0.26946,1.006171 -0.0622,0.231947 -0.12442,0.463887 -0.18666,0.695829 -0.13061,0.487011 -0.26096,0.974095 -0.39114,1.461221 -0.1672,0.625578 -0.33503,1.250981 -0.50304,1.876345 -0.12867,0.479246 -0.25703,0.958578 -0.38528,1.437941 -0.0617,0.230671 -0.12361,0.461318 -0.18558,0.691939 -0.0865,0.322008 -0.17252,0.644129 -0.25842,0.966285 -0.0388,0.144151 -0.0388,0.144151 -0.0785,0.291213 -0.0232,0.08752 -0.0465,0.175025 -0.0704,0.265193 -0.0306,0.114326 -0.0306,0.114326 -0.0618,0.230959 -0.0529,0.241614 -0.0519,0.371175 0.0665,0.590339 1.47451,2.165055 4.82685,2.998726 7.25754,3.483413 1.54179,0.277175 3.44137,0.566905 4.8903,-0.167789 0.25107,-0.190195 0.29716,-0.320023 0.38732,-0.618973 0.0285,-0.09102 0.0561,-0.182254 0.0851,-0.276145 0.0257,-0.09211 0.0524,-0.184 0.0798,-0.27866 0.0238,-0.08093 0.0475,-0.161853 0.071,-0.245466 0.0696,-0.248255 0.13728,-0.496885 0.20305,-0.746209 0.0249,-0.09321 0.05,-0.186449 0.0757,-0.282502 0.0815,-0.304186 0.16241,-0.608498 0.24354,-0.912776 0.0568,-0.212504 0.11363,-0.424999 0.17049,-0.637486 0.14879,-0.556308 0.29716,-1.112725 0.4452,-1.669227 0.15169,-0.56898 0.30385,-1.137837 0.45626,-1.706635 0.2977,-1.114035 0.59497,-2.228191 0.89149,-3.342544 -0.3123,-0.03987 -0.60212,-0.06521 -0.91643,-0.04491 -2.72548,0.152501 -5.44042,-0.333621 -7.96827,-1.372225 -0.1207,-0.04877 -0.24138,-0.09754 -0.36573,-0.147794 -1.16145,-0.488713 -2.1988,-1.164454 -3.2473,-1.857932 -0.15606,0.0901 -0.15915,0.282538 -0.20385,0.448965 z m -13.36636,17.556587 c -0.0666,0.768165 0.22354,1.309085 0.69572,1.902651 0.70535,0.792842 1.52987,1.359958 2.43556,1.900987 0.0591,0.03622 0.11798,0.07242 0.17871,0.109733 1.21064,0.739288 2.52108,1.257411 3.83565,1.781182 0.073,0.0291 0.14601,0.05824 0.22123,0.08824 0.69693,0.275652 1.40261,0.517268 2.11672,0.74436 0.27087,0.08705 0.53896,0.179489 0.80722,0.274196 0.51383,0.177034 1.03684,0.311345 1.56241,0.448753 0.29227,0.08038 0.57623,0.170023 0.8621,0.27037 0.7769,0.272566 1.56342,0.462815 2.37181,0.614395 0.32145,0.06802 0.63485,0.154839 0.95119,0.243588 0.59248,0.162584 1.18048,0.27119 1.78758,0.362595 0.32241,0.05246 0.63549,0.120919 0.9533,0.195796 1.02018,0.222109 2.06248,0.310565 3.10047,0.409236 0.0846,0.0081 0.16913,0.01624 0.25625,0.02462 1.99408,0.183234 4.48285,0.28687 6.15462,-0.974987 0.27518,-0.249042 0.39147,-0.476325 0.51315,-0.826001 0.0248,-0.06921 0.0486,-0.138697 0.0737,-0.210131 0.61398,-1.96302 0.14123,-4.271093 -0.7632,-6.071481 -0.76632,-1.444346 -1.74775,-2.869213 -3.13522,-3.785294 -0.31199,0.06384 -0.50537,0.174815 -0.7717,0.342304 -2.22732,1.388519 -4.99809,0.972301 -7.43772,0.422605 -1.16838,-0.27681 -2.31272,-0.596821 -3.42045,-1.064745 -0.0613,-0.02522 -0.12271,-0.05041 -0.1859,-0.07638 -2.13187,-0.881768 -3.54435,-1.994858 -4.64206,-4.033656 -0.60641,0.02087 -1.13686,0.09069 -1.7161,0.267433 -0.0662,0.01901 -0.13238,0.038 -0.20055,0.05757 -3.09021,0.911764 -5.89538,3.370867 -6.60447,6.582065 z m 11.04256,9.406877 c -0.008,0.09759 -0.0181,0.195199 -0.0274,0.295774 -0.1198,1.27266 -0.26212,2.542484 -0.40636,3.812571 -0.0452,0.398628 -0.0902,0.797282 -0.13517,1.19595 -0.011,0.09797 -0.022,0.195996 -0.0334,0.296954 -0.0855,0.765414 -0.16414,1.53142 -0.24022,2.297826 -0.0471,0.467733 -0.0985,0.93445 -0.15718,1.400873 -0.0175,0.139497 -0.0175,0.139497 -0.0353,0.281798 -0.0226,0.177244 -0.0458,0.354399 -0.0696,0.531467 -0.0773,0.409618 -0.0773,0.409618 0.0356,0.791731 0.23694,-0.330576 0.40062,-0.687724 0.5659,-1.057376 0.0309,-0.06861 0.0618,-0.137213 0.0938,-0.20791 0.30527,-0.67932 0.60246,-1.362187 0.89981,-2.045001 0.2722,-0.624463 0.54871,-1.246826 0.82857,-1.86789 0.40519,-0.899806 0.80343,-1.802498 1.19628,-2.70776 0.1374,-0.316495 0.27675,-0.631885 0.41911,-0.946159 0.0291,-0.06503 0.058,-0.13002 0.0879,-0.197016 0.0756,-0.169049 0.15197,-0.337667 0.22851,-0.50625 0.0267,-0.08403 0.0543,-0.167766 0.082,-0.25422 -0.12539,-0.281429 -0.12539,-0.281429 -0.38665,-0.351193 -0.14864,-0.03807 -0.14864,-0.03807 -0.30029,-0.07694 -0.10876,-0.02841 -0.21742,-0.05681 -0.3294,-0.08609 -0.11436,-0.02878 -0.22869,-0.05755 -0.34651,-0.08715 -0.16838,-0.04357 -0.16838,-0.04357 -0.34014,-0.08814 -0.21666,-0.05609 -0.43342,-0.111785 -0.65028,-0.166994 -0.32726,-0.08365 -0.6535,-0.170447 -0.9795,-0.258834 z"
       fill="#000000"
       id="path1-3"
       style="display:inline;mix-blend-mode:normal;fill:#ffffff;fill-opacity:1;stroke:#143c6d;stroke-width:4;stroke-linecap:round;stroke-linejoin:miter;stroke-miterlimit:1;stroke-dasharray:none;stroke-opacity:1;paint-order:stroke markers fill"
       inkscape:label="pin" />
    <path
       d="m 173.27714,-0.41816684 c 0.81988,0.40994 1.41766,0.900175 1.74768,1.77023404 0.14627,1.023885 0.1246,1.764402 -0.43973,2.636323 -0.38937,0.490358 -0.74278,0.733508 -1.30795,1.005624 -0.27956,0.02055 -0.55978,0.03298 -0.84001,0.03946 -1.09668,0.09789 -1.72578,0.568477 -2.56516,1.24593 -0.14603,0.112679 -0.29208,0.225345 -0.44256,0.341433 -0.30804,0.23767 -0.61499,0.4767717 -0.92087,0.7172187 -0.74675,0.5837094 -1.50765,1.1482518 -2.26723,1.7150928 -0.29812,0.224056 -0.59623,0.448154 -0.89429,0.672293 -1.08997,0.8175323 -2.18747,1.6247713 -3.28641,2.4301933 -0.13546,0.0994 -0.27093,0.19884 -0.4105,0.30127 -0.11964,0.0876 -0.23937,0.17528 -0.3627,0.26559 -0.27084,0.19397 -0.27084,0.19397 -0.45828,0.38979 0.10789,0.0471 0.21589,0.0942 0.32712,0.1427 3.75493,1.64723 6.93786,3.55993 9.95603,6.35192 0.79847,-0.74645 1.42412,-1.57371 2.06338,-2.45804 0.22501,-0.30844 0.45005,-0.61687 0.67512,-0.92528 0.11431,-0.15724 0.22872,-0.31447 0.34654,-0.47647 0.4316,-0.59194 0.86694,-1.18106 1.30253,-1.77006 1.0177,-1.37644 2.025,-2.759978 3.02496,-4.1493413 0.84268,-1.169286 1.6966,-2.3301088 2.55384,-3.4887625 0.19559,-0.264539 0.39049,-0.529593 0.5846,-0.795222 0.17826,-0.240796 0.36028,-0.478866 0.54642,-0.713608 0.51884,-0.670429 0.73032,-1.074525 0.64026,-1.922055 -0.0314,-0.694249 -0.0243,-0.95351 0.28189,-1.601103 0.78105,-0.84270104 1.34471,-1.22696304 2.50313,-1.27411804 0.89008,0.03865 1.41875,0.171906 2.07468,0.811827 0.53645,0.72453104 0.78428,1.37135704 0.72162,2.27762604 -0.16371,0.949554 -0.54741,1.61042 -1.33048,2.187423 -0.47358,0.225508 -0.47358,0.225508 -0.97111,0.324871 -0.86143,0.38505 -1.231,1.020916 -1.75754,1.7836237 -0.22356,0.3136484 -0.4472,0.6272444 -0.67088,0.9407918 -0.11324,0.160666 -0.22653,0.321332 -0.34321,0.486867 -0.52362,0.738227 -1.06295,1.4645993 -1.6018,2.1917393 -0.21032,0.285349 -0.42056,0.570758 -0.63071,0.856221 -0.4229,0.57395 -0.84623,1.14755 -1.26989,1.72091 -1.13636,1.53859 -2.26532,3.08203 -3.38315,4.63413 -0.93693,1.30039 -1.88449,2.59288 -2.83452,3.88371 0.35986,0.61841 0.74951,1.20865 1.15695,1.79662 4.2528,6.1861 5.93953,13.89731 4.68928,21.31315 -0.078,0.41669 -0.16336,0.83083 -0.25364,1.24504 -0.0291,0.13384 -0.058,0.26768 -0.0881,0.40557 -1.20258,5.29084 -3.96067,9.7727 -7.66947,13.66611 -0.12726,0.13883 -0.25442,0.27766 -0.38547,0.42071 -3.56244,3.76601 -8.53279,6.10133 -13.50579,7.33675 -0.3429,0.0869 -0.3429,0.0869 -0.69273,0.17547 -3.75544,0.83125 -8.3916,0.7575 -12.11611,-0.17547 -0.12659,-0.029 -0.25324,-0.0581 -0.3837,-0.088 -4.37418,-1.01009 -8.53375,-3.04327 -11.88389,-6.0458 -0.0925,-0.082 -0.18518,-0.16395 -0.28059,-0.24841 -0.93468,-0.82898 -1.84624,-1.63955 -2.60592,-2.63809 0.30707,0.81993 0.69713,1.58883 1.09371,2.36783 0.13021,0.25587 0.26016,0.51191 0.38971,0.76813 0.0572,0.11236 0.11444,0.22471 0.17341,0.34047 0.48056,1.01865 0.46176,2.09771 0.32763,3.19859 -0.40676,0.93412 -1.10275,1.31007 -2.01828,1.68003 -0.1514,0.0514 -0.30279,0.1028 -0.45877,0.15574 -0.45092,0.14544 -0.45092,0.14544 -0.95066,0.50952 -0.4864,0.11316 -0.96299,0.21029 -1.45452,0.29315 -0.13748,0.0233 -0.27497,0.0466 -0.41663,0.0705 -2.61492,0.42162 -2.61492,0.42162 -3.4621,-0.11562 -0.32172,-0.53152 -0.42703,-0.88817 -0.43974,-1.5109 0.28939,-0.63667 0.4946,-0.87095 1.08243,-1.26284 0.41489,-0.0936 0.83266,-0.17457 1.25157,-0.24806 1.24843,-0.22994 2.42627,-0.57708 3.6194,-1.01478 -0.35082,-0.96992 -0.73658,-1.86422 -1.28539,-2.73992 -0.92397,-1.50961 -0.99944,-2.91031 -0.87949,-4.65673 0.0885,-0.29112 0.18199,-0.5808 0.28189,-0.86821 0.25378,-1.08206 -0.33804,-1.85511 -0.85848,-2.76462 -3.66339,-6.41673 -3.97997,-14.36024 -2.0767,-21.3609 1.62869,-5.65944 5.16073,-10.96438 9.86955,-14.5152 0.18233,-0.14208 0.36466,-0.28418 0.5525,-0.43057 3.70726,-2.82338 8.18914,-4.6657 12.79755,-5.34242 0.20256,-0.0333 0.40511,-0.0665 0.61381,-0.10077 1.1054,-0.133725 2.22151,-0.106394 3.33324,-0.103144 0.38867,9.54e-4 0.77731,10e-6 1.16599,-0.0011 0.25591,6.8e-5 0.51184,3.05e-4 0.76778,6.81e-4 0.18963,-1.97e-4 0.18963,-1.97e-4 0.3831,-3.96e-4 0.62906,0.0037 1.24333,0.02968 1.86819,0.104559 1.33846,0.15159 2.17236,0.20167 3.25277,-0.653399 0.12753,-0.112239 0.25516,-0.224474 0.38663,-0.340112 0.29251,-0.235803 0.58522,-0.471404 0.87806,-0.706825 0.14598,-0.1212523 0.29197,-0.2424953 0.44238,-0.3674183 0.68878,-0.561905 1.40963,-1.077437 2.12982,-1.5980204 1.41212,-1.0357544 2.80622,-2.0944431 4.19366,-3.1630091 0.14746,-0.113174 0.29492,-0.226333 0.44685,-0.34293 0.21609,-0.165849 0.21609,-0.165849 0.43654,-0.335046 0.61513,-0.454477 1.2537,-0.871946 1.89721,-1.285084 0.51924,-0.451808 0.56161,-0.884866 0.64155,-1.544727 0.12833,-0.67250904 0.49237,-0.99788304 0.97602,-1.47002604 0.84267,-0.523967 1.74563,-0.474954 2.70609,-0.360811 z m -29.767,16.23654284 c -0.20629,0.61886 -0.1672,0.68998 0.0873,1.2565 0.0637,0.14261 0.12726,0.28523 0.19291,0.43217 0.0712,0.15342 0.14245,0.30685 0.21582,0.46493 0.0726,0.15878 0.14523,0.31755 0.22005,0.48114 1.05519,2.26734 2.26852,4.45809 3.61359,6.56597 0.0943,-0.063 0.18862,-0.12593 0.28579,-0.1908 0.76995,-0.5137 1.54068,-1.02622 2.31246,-1.53715 0.33286,-0.22081 0.66572,-0.44162 0.99858,-0.66243 0.17036,-0.11256 0.3407,-0.22511 0.51621,-0.34108 0.16244,-0.10791 0.32487,-0.21581 0.49223,-0.32699 0.1465,-0.097 0.29301,-0.19406 0.44392,-0.29404 0.38019,-0.25228 0.38019,-0.25228 0.72379,-0.61644 -0.0952,-0.1427 -0.0952,-0.1427 -0.19239,-0.28827 -1.30366,-1.96039 -2.54022,-3.9205 -3.59613,-6.02594 -1.90983,-0.0812 -4.58215,0.28641 -6.31422,1.08243 z m 9.92233,-0.90203 c 0.74227,1.70599 1.81637,3.17998 2.8865,4.69056 0.11819,-0.0518 0.23627,-0.10364 0.358,-0.15702 0.54199,-0.23745 1.08424,-0.47432 1.62646,-0.71119 0.18582,-0.0815 0.37164,-0.16302 0.56307,-0.247 1.00617,-0.439 2.01271,-0.85659 3.04505,-1.23007 -0.49356,-0.39979 -0.93075,-0.64939 -1.53203,-0.85129 -0.15576,-0.0525 -0.31153,-0.10508 -0.47202,-0.15922 -0.1647,-0.0535 -0.32938,-0.10701 -0.49907,-0.16213 -0.16923,-0.0555 -0.33845,-0.11096 -0.51281,-0.16812 -1.78471,-0.57369 -3.56968,-1.11813 -5.46315,-1.00452 z m -18.76223,5.773 c 0.32925,1.46447 0.75735,2.83489 1.34178,4.21699 0.11591,0.27623 0.11591,0.27623 0.23405,0.55804 1.00929,2.34947 2.19895,4.66486 3.65595,6.77095 0.19212,-0.16111 0.38368,-0.32285 0.57505,-0.48484 0.16011,-0.135 0.16011,-0.135 0.32346,-0.27272 0.44024,-0.39256 0.85201,-0.80708 1.26636,-1.2269 0.39047,-0.39506 0.78147,-0.78957 1.17265,-1.18392 0.10031,-0.10174 0.20046,-0.20349 0.30373,-0.30831 0.56329,-0.56661 1.13425,-1.08885 1.77094,-1.57468 -0.1027,-0.75883 -0.3576,-1.23631 -0.77799,-1.87171 -1.64804,-2.58028 -3.05525,-5.34998 -4.09299,-8.23103 -1.85851,0 -4.40918,2.53285 -5.77299,3.60813 z m 23.63319,1.44324 c 0.70715,0.99278 1.47898,1.90311 2.30088,2.80264 0.47408,0.52024 0.93582,1.05031 1.39605,1.58278 0.26144,0.29328 0.53255,0.57156 0.81323,0.84636 0.84472,-0.30311 1.59208,-0.73983 2.36784,-1.18392 1.69559,-0.95847 3.43979,-1.79248 5.20922,-2.60461 -1.41933,-1.67081 -2.88385,-3.08095 -4.69056,-4.32974 -2.36095,0 -5.35933,1.75998 -7.39666,2.88649 z m -26.33926,1.26285 c -1.72543,1.73506 -3.59022,4.32258 -4.32976,6.67502 0.0214,1.21488 0.5598,2.26547 1.04861,3.36006 0.0875,0.1973 0.17495,0.39459 0.26506,0.59786 1.07744,2.38057 2.30436,4.79796 3.91811,6.86644 0.11911,0 0.23813,0 0.3608,0 0.31129,-0.42274 0.60303,-0.84696 0.89077,-1.2854 0.7627,-1.13907 1.56236,-2.2308 2.42557,-3.29566 0.44849,-0.55631 0.83292,-1.11725 1.19383,-1.73315 -0.10055,-0.16698 -0.10055,-0.16698 -0.20322,-0.33733 -1.89153,-3.15379 -3.68673,-6.32853 -4.88446,-9.81826 -0.18609,-0.63927 -0.18609,-0.63927 -0.68531,-1.02958 z m 21.94188,1.16136 c -0.12861,0.0811 -0.25727,0.16215 -0.3898,0.24568 -2.16761,1.2481 -2.16761,1.2481 -3.69189,3.10311 1.48937,1.81613 2.98672,3.62448 4.51015,5.41218 0.88208,-0.27785 1.47951,-0.79274 2.17614,-1.3756 1.15379,-0.94633 2.33496,-1.79437 3.59685,-2.59334 -0.29753,-0.74205 -0.83205,-1.25898 -1.37559,-1.82661 -1.03107,-1.09552 -2.01762,-2.21967 -2.88016,-3.45519 -0.084,-0.10256 -0.16791,-0.20512 -0.25439,-0.31078 -0.64164,0 -1.16109,0.46545 -1.69131,0.80055 z m 11.43323,4.97244 c 0.24629,0.56487 0.51093,0.90092 0.98097,1.29667 0.12739,0.10791 0.25487,0.21581 0.38617,0.32698 0.21627,0.17861 0.21627,0.17861 0.43693,0.36082 0.1665,0.13767 0.33301,0.27534 0.50455,0.41719 0.78937,0.64854 1.5835,1.29077 2.38194,1.92809 0.90018,-0.30364 1.64723,-0.81317 2.43547,-1.3305 0.13466,-0.087 0.2693,-0.17395 0.40804,-0.26356 0.70552,-0.45953 1.3808,-0.93141 2.02745,-1.47285 -0.2497,-0.54597 -0.50231,-1.09054 -0.75545,-1.63493 -0.0699,-0.1529 -0.13976,-0.30581 -0.21176,-0.46334 -0.44038,-0.94259 -0.91488,-1.77305 -1.55847,-2.59228 -2.08384,0 -5.25506,2.33353 -7.03584,3.42771 z m -19.02157,0.87948 c -0.16092,0.14814 -0.32185,0.29627 -0.48766,0.4489 -0.17022,0.15698 -0.34046,0.31395 -0.51584,0.47568 -0.17023,0.1514 -0.34046,0.30279 -0.51586,0.45877 -1.75256,1.44454 -1.75256,1.44454 -2.91187,3.32975 0.27209,0.47079 0.27209,0.47079 0.67653,0.96969 0.0728,0.0941 0.14549,0.18823 0.22045,0.28518 0.86938,1.11345 1.7892,2.18538 2.71115,3.25529 0.22178,0.25931 0.44354,0.51864 0.66525,0.778 0.13768,0.16 0.27535,0.32 0.41719,0.48484 1.21609,-0.99701 2.31047,-2.10976 3.41643,-3.22476 0.19413,-0.19501 0.38827,-0.38998 0.58246,-0.58491 0.47159,-0.47355 0.94259,-0.94767 1.4133,-1.42211 -0.2936,-0.79554 -0.64491,-1.25038 -1.2403,-1.86043 -0.95051,-0.99359 -1.76925,-2.05882 -2.56894,-3.17635 -0.22574,-0.31143 -0.46238,-0.61489 -0.70093,-0.91661 -0.5544,0 -0.76025,0.32813 -1.16136,0.69907 z m 11.6066,4.30085 c -0.52291,0.41225 -0.52291,0.41225 -1.06411,0.77307 0.23851,0.53325 0.49077,0.89097 0.91823,1.28751 0.16637,0.15518 0.16637,0.15518 0.33609,0.31351 0.17725,0.1619 0.17725,0.1619 0.35804,0.32707 0.12033,0.11118 0.24074,0.22238 0.36474,0.33694 0.99263,0.90986 2.01535,1.77377 3.07425,2.60593 1.00413,-0.72847 1.95284,-1.50532 2.89558,-2.31013 0.88355,-0.75302 1.78511,-1.4816 2.69701,-2.20002 -0.64431,-0.66221 -1.31889,-1.26967 -2.02955,-1.86044 -0.86328,-0.72177 -1.7075,-1.45871 -2.53344,-2.22336 -1.02594,-0.81934 -4.10561,2.2216 -5.01684,2.94992 z m 16.41272,0.11911 c -0.11885,0.0744 -0.23767,0.14883 -0.36012,0.2255 -0.30023,0.19269 -0.5911,0.39981 -0.88016,0.60887 0,0.11907 0,0.23813 0,0.36081 0.30583,0.23926 0.30583,0.23926 0.70399,0.46934 0.21855,0.13256 0.21855,0.13256 0.4415,0.26779 0.15406,0.0916 0.30815,0.18325 0.46687,0.27765 0.15338,0.093 0.30675,0.18605 0.46476,0.28189 0.63643,0.45847 0.63643,0.45847 1.35059,0.6878 -0.0882,-1.34914 -0.24068,-2.65003 -0.54123,-3.96894 -0.63234,0 -1.12809,0.45482 -1.6462,0.78929 z m -48.32626,0.47356 c -0.335,1.64233 -0.42429,3.23098 -0.4172,4.90479 3.6e-4,0.12308 6.8e-4,0.24616 0.001,0.37298 0.008,1.9058 0.11604,3.6971 0.59661,5.54659 0.0338,0.13052 0.0676,0.26104 0.10256,0.39552 0.39188,1.4832 0.84325,2.91419 1.52111,4.29504 0.11912,0 0.23814,0 0.36081,0 0.0722,-0.1769 0.0722,-0.1769 0.14557,-0.35738 0.90106,-2.2054 1.80211,-4.393 2.92134,-6.49805 -0.15453,-0.22081 -0.15453,-0.22081 -0.31218,-0.44609 -0.98021,-1.42378 -1.87142,-2.88552 -2.72089,-4.39105 -0.1457,-0.25798 -0.1457,-0.25798 -0.29435,-0.52117 -0.60681,-1.08528 -1.17843,-2.18398 -1.72404,-3.30118 -0.0596,0 -0.11912,0 -0.1804,0 z m 13.53044,2.16487 c -1.23105,1.29671 -2.26674,2.76861 -3.29242,4.22827 -0.12485,0.17305 -0.24982,0.3461 -0.37851,0.52439 -0.17123,0.24797 -0.17123,0.24797 -0.34591,0.50096 -0.10376,0.14778 -0.20758,0.29555 -0.31448,0.4478 -0.22877,0.4311 -0.22877,0.4311 -0.06,0.89988 0.21992,0.39498 0.43438,0.71376 0.73312,1.05116 0.0964,0.11007 0.19282,0.22014 0.29214,0.33355 0.10243,0.11433 0.20487,0.22868 0.3104,0.34649 0.10482,0.11865 0.20972,0.2373 0.31777,0.35954 0.21139,0.23879 0.42327,0.47711 0.63569,0.71497 0.26529,0.29804 0.52759,0.5983 0.78858,0.9001 0.13954,0.15953 0.27907,0.31906 0.42282,0.48343 0.12112,0.13883 0.24233,0.27767 0.36717,0.42071 0.33931,0.33096 0.63056,0.51275 1.06481,0.69555 0.16081,-0.22953 0.16081,-0.22953 0.32488,-0.4637 0.89488,-1.26914 1.8133,-2.51149 2.78595,-3.72237 0.50379,-0.63013 0.96136,-1.27143 1.39933,-1.94774 -0.11137,-0.12024 -0.2228,-0.24046 -0.33756,-0.36433 -1.22534,-1.33351 -2.3822,-2.70945 -3.50595,-4.13031 -0.13074,-0.16512 -0.26139,-0.33023 -0.39605,-0.50035 -0.11724,-0.14953 -0.23441,-0.29907 -0.35517,-0.45313 -0.0912,-0.1072 -0.18231,-0.21441 -0.27624,-0.32487 -0.0596,0 -0.11912,0 -0.1804,0 z m 14.09167,0.84107 c -0.22042,0.22048 -0.43984,0.44195 -0.65846,0.66419 -0.11565,0.11613 -0.23123,0.23225 -0.35035,0.3519 -0.37031,0.37234 -0.73938,0.74592 -1.10839,1.11954 -0.25034,0.25213 -0.50075,0.50419 -0.75123,0.75616 -0.61501,0.61897 -1.22885,1.23905 -1.84212,1.85973 0.8081,0.9648 0.8081,0.9648 1.6899,1.86114 0.15483,0.14453 0.15483,0.14453 0.31279,0.29197 0.10562,0.0969 0.21122,0.19381 0.32004,0.29364 0.16504,0.15251 0.16504,0.15251 0.33342,0.3081 0.76396,0.69896 1.5461,1.34132 2.39522,1.93571 0.77407,-0.2981 1.28863,-0.88228 1.85762,-1.46158 0.16064,-0.1614 0.16064,-0.1614 0.32454,-0.32608 0.34086,-0.34288 0.68046,-0.68701 1.02004,-1.03119 0.2313,-0.2331 0.46268,-0.46613 0.69416,-0.69907 0.56636,-0.57034 1.13159,-1.1418 1.69623,-1.71386 -0.63663,-0.63977 -1.28393,-1.26347 -1.95065,-1.87171 -0.0943,-0.0863 -0.18857,-0.17256 -0.28572,-0.26145 -0.65225,-0.5952 -1.3119,-1.18098 -1.98134,-1.75685 -0.29245,-0.25933 -0.29245,-0.25933 -0.57926,-0.56376 -0.50477,-0.46981 -0.64905,-0.2056 -1.13644,0.24347 z m 15.23559,0.41049 c -0.16881,0.13453 -0.16881,0.13453 -0.34103,0.27176 -0.34187,0.27303 -0.68266,0.54738 -1.0233,0.82196 -0.0984,0.0788 -0.19685,0.15762 -0.29827,0.23881 -0.90741,0.72668 -1.77479,1.45458 -2.58822,2.28688 5.08545,3.56184 5.08545,3.56184 10.82436,5.77299 0.76377,-2.05478 1.00975,-4.14851 1.26285,-6.31421 -0.47192,-0.3654 -0.94616,-0.68425 -1.4658,-0.97744 -0.1414,-0.0805 -0.28282,-0.16101 -0.4285,-0.24396 -0.22324,-0.12657 -0.22324,-0.12657 -0.45098,-0.25568 -1.23059,-0.70277 -2.41916,-1.43304 -3.58064,-2.24592 -0.8198,-0.51925 -1.26016,0.12115 -1.91047,0.64481 z m -6.77651,5.60387 c -1.72648,1.72649 -3.45296,3.45297 -5.23176,5.23178 0.34544,0.69089 0.41694,0.81924 1.01901,1.19589 0.13489,0.0852 0.26976,0.17035 0.40873,0.2581 0.14651,0.0895 0.29303,0.17895 0.44397,0.27114 0.15256,0.0944 0.30511,0.18871 0.46228,0.28593 3.62479,2.22004 7.28375,4.03088 11.37685,5.20518 1.22595,-1.2693 3.60813,-3.9346 3.60813,-5.77299 -0.1103,-0.0488 -0.22075,-0.0976 -0.33448,-0.14782 -3.918,-1.74053 -7.61054,-3.64292 -11.09929,-6.14539 -0.29505,-0.21306 -0.29505,-0.21306 -0.65344,-0.38182 z m -15.33451,1.26285 c -1.08295,1.24673 -2.09579,2.53179 -3.0669,3.86744 -0.10166,0.13869 -0.20333,0.27739 -0.3081,0.42028 -0.47036,0.65334 -0.88836,1.25062 -1.13514,2.02648 0.92646,0.97426 1.90523,1.84365 2.95415,2.68425 0.41166,0.33264 0.81028,0.67458 1.20645,1.02536 0.46146,0.47813 0.46146,0.47813 0.89076,0.43973 0.272,-0.29651 0.272,-0.29651 0.5525,-0.68779 1.31837,-1.74332 2.73648,-3.40857 4.13807,-5.0852 -1.64297,-1.66368 -3.40019,-3.2366 -5.23179,-4.69055 z m -13.53046,1.26283 c -0.97005,1.91694 -1.87368,3.83572 -2.5595,5.87447 -0.0546,0.1597 -0.10937,0.31939 -0.16565,0.48392 -0.0484,0.14937 -0.0967,0.29874 -0.14654,0.45265 -0.0423,0.13082 -0.0848,0.26165 -0.12833,0.39644 -0.1043,0.57702 0.0257,0.95407 0.3377,1.44074 0.6585,0.83179 1.34398,1.63579 2.05351,2.4242 0.12312,0.13849 0.12312,0.13849 0.24867,0.27977 0.49809,0.54409 0.98635,0.91147 1.62304,1.27624 0.0581,-0.12341 0.11604,-0.2468 0.17583,-0.37394 0.27108,-0.57493 0.54351,-1.14921 0.81641,-1.72328 0.0977,-0.20585 0.19541,-0.41171 0.29606,-0.6238 0.63879,-1.33216 1.31944,-2.60643 2.11546,-3.85041 0.2508,-0.44113 0.2508,-0.44113 0.11057,-0.83791 -0.33151,-0.4321 -0.69514,-0.79595 -1.09019,-1.17122 -0.9499,-0.92932 -1.77957,-1.92558 -2.6046,-2.96543 -0.29567,-0.36623 -0.59409,-0.72637 -0.90204,-1.08244 -0.0596,0 -0.11912,0 -0.18041,0 z m 21.28792,5.23178 c -0.3008,0.30303 -0.59158,0.60957 -0.87946,0.92458 -0.088,0.0961 -0.17588,0.19218 -0.26649,0.29118 -1.34914,1.49427 -2.56333,3.09507 -3.72501,4.73764 5.36525,3.91879 5.36525,3.91879 11.44098,5.7448 0.62943,-0.20568 1.21703,-0.47607 1.8076,-0.77236 0.12579,-0.063 0.25156,-0.12596 0.38115,-0.19084 1.74244,-0.90002 3.27771,-2.07543 4.77169,-3.33835 -0.23255,-0.46509 -0.39988,-0.47978 -0.87948,-0.66102 -0.14637,-0.0565 -0.29273,-0.11287 -0.44353,-0.17103 -0.15875,-0.0603 -0.31749,-0.12061 -0.48105,-0.18274 -3.97241,-1.55713 -7.68763,-3.5105 -11.11541,-6.06967 -0.36629,-0.32984 -0.36629,-0.32984 -0.61099,-0.31219 z m -14.25207,2.52568 c -0.37754,0.71099 -0.75292,1.42306 -1.12643,2.13616 -0.127,0.24172 -0.25453,0.48315 -0.38267,0.72427 -0.71926,1.35439 -1.38736,2.67038 -1.73821,4.17541 2.31813,1.57081 2.31813,1.57081 4.87095,2.34528 0.21556,-0.27633 0.21556,-0.27633 0.41861,-0.64058 0.0811,-0.13654 0.16217,-0.27308 0.24572,-0.41376 0.0858,-0.14694 0.17177,-0.29389 0.26026,-0.44528 0.77372,-1.2981 1.58134,-2.53303 2.50314,-3.73216 -0.64907,-0.66712 -1.3258,-1.27645 -2.04085,-1.87171 -0.80764,-0.67588 -1.60381,-1.36034 -2.38121,-2.07114 -0.25972,-0.24314 -0.25972,-0.24314 -0.62931,-0.20649 z m 7.39665,5.9534 c -0.30944,0.39078 -0.30944,0.39078 -0.62718,0.89498 -0.12099,0.18558 -0.24187,0.37116 -0.36646,0.56237 -0.18907,0.29441 -0.18907,0.29441 -0.38196,0.59477 -0.1274,0.19488 -0.25489,0.38976 -0.38619,0.59055 -0.65703,0.86966 -0.65703,0.86966 -0.94431,1.86749 0.36058,0.0874 0.72145,0.1736 1.08244,0.25933 0.20093,0.0481 0.40185,0.0963 0.60887,0.14587 1.50008,0.31198 2.94779,0.34939 4.47633,0.35025 0.20615,0.002 0.41232,0.004 0.62471,0.007 1.43533,0.003 2.80093,-0.14341 4.21242,-0.40133 0,-0.11908 0,-0.23814 0,-0.36082 -0.17488,-0.0854 -0.34977,-0.17069 -0.52993,-0.25862 -2.42306,-1.19139 -4.7847,-2.44417 -7.00061,-3.9929 -0.37766,-0.29089 -0.37766,-0.29089 -0.76813,-0.25866 z"
       fill="#ffffff"
       id="path1"
       style="display:none;stroke-width:0.180405"
       inkscape:export-filename="path1.png"
       inkscape:export-xdpi="96"
       inkscape:export-ydpi="96"
       inkscape:label="yarnballknit"
       transform="translate(-56.77532,12.379581)" />
  </g>
</svg>
